<svg width="50" height="50" fill="none" xmlns="http://www.w3.org/2000/svg"><g id="services / delivery" stroke="#666" stroke-width="2" stroke-miterlimit="10" stroke-linecap="round" stroke-linejoin="round"><path id="layer2" d="M48.438 35.938V32.03l-6.25-5.468h-6.25"/><path id="layer2_2" d="M18.75 45.313a3.125 3.125 0 1 0 0-6.25 3.125 3.125 0 0 0 0 6.25Z"/><path id="layer2_3" d="M42.188 45.313a3.125 3.125 0 1 0 0-6.25 3.125 3.125 0 0 0 0 6.25Z"/><path id="layer2_4" d="M15.625 42.188H12.5v-6.25m0 0h35.938v6.25h-3.126M12.5 35.938V23.28m6.64-4.531h16.797v17.188m-34.374-6.25H6.25m-1.563 6.25H6.25"/><path id="layer2_5" d="M15.625 42.188H12.5v-6.25m0 0h35.938v6.25h-3.126M12.5 35.938V23.28m6.64-4.531h16.797v17.188m-34.374-6.25H6.25m-1.563 6.25H6.25m16.016 6.25h16.797"/><path id="layer1" d="M10.938 23.438a9.375 9.375 0 1 0 0-18.75 9.375 9.375 0 1 0 0 18.75Z"/><path id="layer1_2" d="M10.938 9.375v6.25h4.687"/></g></svg>